<?xml version="1.0" encoding="utf-8"?>
<!-- Generator: Adobe Illustrator 21.1.0, SVG Export Plug-In . SVG Version: 6.00 Build 0)  -->
<svg version="1.1" id="Layer_1" xmlns="http://www.w3.org/2000/svg" xmlns:xlink="http://www.w3.org/1999/xlink" x="0px" y="0px"
	 viewBox="0 0 200 200" style="enable-background:new 0 0 200 200;" xml:space="preserve">
<style type="text/css">
	.st0{fill:#EAEAEA;}
	.st1{fill:none;stroke:#EAEAEA;stroke-width:8;stroke-miterlimit:10;}
</style>
<path class="st0" d="M130.4,79.6c0,0.7,0,1.3,0,2c-0.1,0.3-0.3,0.5-0.3,0.8c-0.6,5.5-1.2,10.9-1.7,16.4c-0.1,1.4-0.6,1.9-2,1.8
	c-5.4-0.1-10.8,0-16.2,0c-0.6,0-1.2,0-1.8,0c0,18.7,0,37.1,0,55.5c-7.3,0-14.7,0-22,0c0-18.4,0-36.9,0-55.4c-5,0-9.9,0-14.7,0
	c0-7,0-14,0-21c4.9,0,9.7,0,14.7,0c0-3.6,0-6.9,0-10.2c0.1-11.2,6.4-19.6,17.1-22.8c2.5-0.7,5.1-1.1,7.6-1.7c6.5,0,12.9,0,19.4,0
	c0,7,0,14,0,21c-5.5,0-11.1,0-16.6,0c-1.5,0-2.8,0.7-2.9,2.4c-0.1,3.7,0,7.5,0,11.3C117.4,79.6,123.9,79.6,130.4,79.6z"/>
<circle class="st1" cx="100" cy="100" r="93"/>
</svg>
