<?xml version="1.0" encoding="utf-8"?>
<!-- Generator: Adobe Illustrator 21.1.0, SVG Export Plug-In . SVG Version: 6.00 Build 0)  -->
<svg version="1.1" id="Layer_1" xmlns="http://www.w3.org/2000/svg" xmlns:xlink="http://www.w3.org/1999/xlink" x="0px" y="0px"
	 viewBox="0 0 200 200" style="enable-background:new 0 0 200 200;" xml:space="preserve">
<style type="text/css">
	.st0{fill:#EAEAEA;}
	.st1{fill:none;stroke:#EAEAEA;stroke-width:8;stroke-miterlimit:10;}
	.st2{fill:none;stroke:#FFFFFF;stroke-width:10;stroke-miterlimit:10;}
	.st3{fill:#FFFFFF;}
</style>
<circle class="st1" cx="100" cy="100" r="93"/>
<path class="st0" d="M99.7,146.8c-11.3,0-22.6,0-33.9,0c-8.2,0-12.5-4.3-12.5-12.5c0-22.8,0-45.7,0-68.5c0-8.4,4.3-12.6,12.8-12.6
	c22.7,0,45.5,0,68.2,0c8.5,0,12.7,4.2,12.7,12.7c0,22.7,0,45.5,0,68.2c0,8.6-4.2,12.8-12.9,12.8C122.5,146.8,111.1,146.8,99.7,146.8
	z M128.1,93c3.9,21.1-11.3,35.5-27.5,35.8c-8,0.2-15-2.6-20.7-8.3c-7.6-7.6-9.9-16.9-7.8-27.5c-2.8,0-5.3,0-8,0
	c-0.1,1.1-0.2,2.1-0.2,3.1c0,11.5,0,23.1,0,34.6c0,4.2,1.3,5.6,5.5,5.6c20.4,0,40.8,0,61.2,0c4.4,0,5.6-1.3,5.6-5.8
	c0-11.4,0-22.8,0-34.3c0-1-0.1-1.9-0.2-3.1C133.4,93,130.9,93,128.1,93z M118.2,99.9c-0.1-9.8-8.7-18.2-18.4-18
	C90,82,81.9,90.3,81.8,100c0,9.8,8.5,18.3,18.2,18.2C109.9,118.1,118.3,109.6,118.2,99.9z M136.2,72.8c0-8.8-0.2-9-8.8-9
	c-9.6,0-9.6,0-9.6,9.5c0,8.8,0.1,8.9,8.9,8.9C136.2,82.2,136.2,82.2,136.2,72.8z"/>
</svg>
