<?xml version="1.0" encoding="utf-8"?>
<!-- Generator: Adobe Illustrator 21.1.0, SVG Export Plug-In . SVG Version: 6.00 Build 0)  -->
<svg version="1.1" id="icons" xmlns="http://www.w3.org/2000/svg" xmlns:xlink="http://www.w3.org/1999/xlink" x="0px" y="0px"
	 viewBox="0 0 104.9 121.4" style="enable-background:new 0 0 104.9 121.4;" xml:space="preserve">
<style type="text/css">
	.st0{fill:#EAEAEA;}
</style>
<path class="st0" d="M52.1,107.6c-11.3,0-22.6,0-33.9,0c-8.2,0-12.5-4.3-12.5-12.5c0-22.8,0-45.7,0-68.5c0-8.4,4.3-12.6,12.8-12.6
	c22.7,0,45.5,0,68.2,0c8.5,0,12.7,4.2,12.7,12.7c0,22.7,0,45.5,0,68.2c0,8.6-4.2,12.8-12.9,12.8C75,107.6,63.5,107.6,52.1,107.6z
	 M80.6,53.7C84.5,74.8,69.3,89.2,53,89.5c-8,0.2-15-2.6-20.7-8.3c-7.6-7.6-9.9-16.9-7.8-27.5c-2.8,0-5.3,0-8,0
	c-0.1,1.1-0.2,2.1-0.2,3.1c0,11.5,0,23.1,0,34.6c0,4.2,1.3,5.6,5.5,5.6c20.4,0,40.8,0,61.2,0c4.4,0,5.6-1.3,5.6-5.8
	c0-11.4,0-22.8,0-34.3c0-1-0.1-1.9-0.2-3.1C85.8,53.7,83.4,53.7,80.6,53.7z M70.7,60.6c-0.1-9.8-8.7-18.2-18.4-18
	c-9.8,0.2-17.9,8.5-18,18.1c0,9.8,8.5,18.3,18.2,18.2C62.3,78.9,70.8,70.3,70.7,60.6z M88.7,33.5c0-8.8-0.2-9-8.8-9
	c-9.6,0-9.6,0-9.6,9.5c0,8.8,0.1,8.9,8.9,8.9C88.7,42.9,88.7,42.9,88.7,33.5z"/>
</svg>
