<?xml version="1.0" encoding="utf-8"?>
<!-- Generator: Adobe Illustrator 21.1.0, SVG Export Plug-In . SVG Version: 6.00 Build 0)  -->
<svg version="1.1" id="Layer_1" xmlns="http://www.w3.org/2000/svg" xmlns:xlink="http://www.w3.org/1999/xlink" x="0px" y="0px"
	 viewBox="0 0 200 200" style="enable-background:new 0 0 200 200;" xml:space="preserve">
<style type="text/css">
	.st0{fill:#EAEAEA;}
	.st1{fill:none;stroke:#EAEAEA;stroke-width:8;stroke-miterlimit:10;}
	.st2{fill:none;stroke:#FFFFFF;stroke-width:10;stroke-miterlimit:10;}
	.st3{fill:#FFFFFF;}
</style>
<circle class="st1" cx="100" cy="100" r="93"/>
<path class="st0" d="M82.4,143.2c-1.4,0-2.7,0-4.1,0c-0.1,0-0.2,0-0.3,0c-2.2-0.2-4.4-0.3-6.6-0.6c-3.2-0.4-6.3-1.1-9.4-2.1
	c-5.3-1.6-10.3-3.9-15-6.9c-0.1,0-0.1-0.1-0.2-0.2c5.8,0.6,11.5,0.2,17-1.3c5.5-1.6,10.6-4.1,15.1-7.7c-10.6-0.3-18-7.7-20.2-15.2
	c1.6,0.3,3.2,0.4,4.8,0.4c1.6-0.1,3.2-0.3,4.8-0.7c-5-1.2-9.3-3.7-12.5-7.8C52.6,97,51,92.4,51,87.2c1.5,0.9,3.1,1.5,4.7,1.9
	c1.6,0.5,3.3,0.7,5.1,0.8c-4.7-3.3-7.8-7.7-9.1-13.3c-1.3-5.6-0.4-10.9,2.4-15.8c11.8,13.9,26.8,21.6,45,22.8c0-0.2-0.1-0.3-0.1-0.4
	c-0.1-1-0.3-2-0.4-3c-0.2-2.2,0-4.4,0.5-6.6c1.3-5.2,4.1-9.4,8.4-12.6c3.3-2.4,6.9-3.8,11-4.1c2.3-0.2,4.6-0.1,6.8,0.5
	c4.2,1,7.8,3,10.8,6.1c0.1,0.1,0.3,0.2,0.5,0.1c4.6-0.9,9-2.6,13.1-5c0.1-0.1,0.3-0.2,0.5-0.3c-1.7,5.2-4.9,9.1-9.4,12
	c4.3-0.5,8.3-1.6,12.3-3.3c-0.9,1.3-1.9,2.6-2.9,3.8c-2.1,2.6-4.5,4.8-7.2,6.8c-0.6,0.4-0.7,0.8-0.7,1.5c0.1,3.9-0.1,7.9-0.8,11.8
	c-0.5,3.2-1.3,6.3-2.3,9.4c-1.3,3.8-2.9,7.5-4.8,11.1c-2,3.6-4.3,7.1-7,10.3c-2,2.5-4.3,4.7-6.7,6.8c-3.3,2.9-7,5.4-10.9,7.5
	c-3.9,2.1-8,3.7-12.3,4.9c-2.7,0.7-5.4,1.3-8.2,1.6c-1.7,0.2-3.3,0.3-5,0.5C83.7,143.2,83,143.2,82.4,143.2z"/>
</svg>
