<?xml version="1.0" encoding="utf-8"?>
<!-- Generator: Adobe Illustrator 21.1.0, SVG Export Plug-In . SVG Version: 6.00 Build 0)  -->
<svg version="1.1" id="Layer_1" xmlns="http://www.w3.org/2000/svg" xmlns:xlink="http://www.w3.org/1999/xlink" x="0px" y="0px"
	 viewBox="0 0 200 200" style="enable-background:new 0 0 200 200;" xml:space="preserve">
<style type="text/css">
	.st0{fill:#EAEAEA;}
	.st1{fill:none;stroke:#EAEAEA;stroke-width:8;stroke-miterlimit:10;}
	.st2{fill:none;stroke:#FFFFFF;stroke-width:10;stroke-miterlimit:10;}
	.st3{fill:#FFFFFF;}
</style>
<circle class="st1" cx="100" cy="100" r="93"/>
<path class="st0" d="M124.5,141.5c-15.1,0-30.3,0-45.4,0c-0.9-0.1-1.7-0.2-2.6-0.3c-6.6-0.3-13.2-0.2-19.7-0.9
	c-6.2-0.6-10.5-4.1-12.2-10.4c-2.3-8.8-3.3-17.7-3.3-26.7c-0.1-10.9,0.5-21.7,3.2-32.3c1.8-7.4,6.9-11.4,14.6-11.6
	c5.1-0.1,10.3-0.3,15.4-0.4c1,0,1.9-0.2,2.9-0.3c14.5,0,28.9,0,43.4,0c0.7,0.1,1.4,0.3,2,0.3c6.9,0.3,13.7,0.4,20.6,0.8
	c5.8,0.3,10.5,4.3,12,9.9c2.5,8.8,3.4,17.8,3.5,26.9c0.1,11.1-0.6,22-3.2,32.8c-1.6,6.5-5.5,10.4-12,11.2c-4.7,0.6-9.4,0.5-14.2,0.7
	C127.8,141.2,126.1,141.3,124.5,141.5z M126.5,99.8c-11.3-7.6-22.4-15.1-33.6-22.7c0,15.2,0,30,0,45.2
	C104.2,114.7,115.2,107.3,126.5,99.8z"/>
</svg>
